<svg xmlns="http://www.w3.org/2000/svg" viewBox="0 0 200 220" fill="none">
  <!-- Outer shield - gray back -->
  <path d="M100 10 L170 45 Q175 47 175 53 L175 120 Q175 155 100 200 Q25 155 25 120 L25 53 Q25 47 30 45 Z" stroke="#C0C8D0" stroke-width="6" fill="none" stroke-linecap="round" stroke-linejoin="round" opacity="0.5"/>
  <!-- Shield left - light blue -->
  <path d="M100 200 Q25 155 25 120 L25 53 Q25 47 30 45 L100 10" stroke="#3FA9F5" stroke-width="8" fill="none" stroke-linecap="round" stroke-linejoin="round"/>
  <!-- Shield right - dark blue -->
  <path d="M100 10 L170 45 Q175 47 175 53 L175 120 Q175 155 100 200" stroke="#1B6DAA" stroke-width="8" fill="none" stroke-linecap="round" stroke-linejoin="round"/>

  <!-- DNA Helix - Blue strand -->
  <path d="M88 32 Q78 50 88 68 Q98 86 88 104 Q78 122 88 140 Q98 158 88 176" stroke="#3FA9F5" stroke-width="6" fill="none" stroke-linecap="round"/>
  <!-- DNA Helix - Green strand -->
  <path d="M112 32 Q122 50 112 68 Q102 86 112 104 Q122 122 112 140 Q102 158 112 176" stroke="#6BB536" stroke-width="6" fill="none" stroke-linecap="round"/>

  <!-- Horizontal rungs -->
  <line x1="90" y1="50" x2="110" y2="50" stroke="#3FA9F5" stroke-width="3" stroke-linecap="round"/>
  <line x1="92" y1="58" x2="108" y2="58" stroke="#6BB536" stroke-width="3" stroke-linecap="round"/>
  <line x1="95" y1="66" x2="105" y2="66" stroke="#3FA9F5" stroke-width="3" stroke-linecap="round"/>

  <line x1="95" y1="82" x2="105" y2="82" stroke="#6BB536" stroke-width="3" stroke-linecap="round"/>
  <line x1="92" y1="90" x2="108" y2="90" stroke="#3FA9F5" stroke-width="3" stroke-linecap="round"/>
  <line x1="90" y1="98" x2="110" y2="98" stroke="#6BB536" stroke-width="3" stroke-linecap="round"/>

  <line x1="90" y1="114" x2="110" y2="114" stroke="#3FA9F5" stroke-width="3" stroke-linecap="round"/>
  <line x1="92" y1="122" x2="108" y2="122" stroke="#6BB536" stroke-width="3" stroke-linecap="round"/>
  <line x1="95" y1="130" x2="105" y2="130" stroke="#3FA9F5" stroke-width="3" stroke-linecap="round"/>

  <line x1="95" y1="146" x2="105" y2="146" stroke="#6BB536" stroke-width="3" stroke-linecap="round"/>
  <line x1="92" y1="154" x2="108" y2="154" stroke="#3FA9F5" stroke-width="3" stroke-linecap="round"/>
  <line x1="90" y1="162" x2="110" y2="162" stroke="#6BB536" stroke-width="3" stroke-linecap="round"/>
</svg>
